<?xml version="1.0" standalone="no"?>
<!DOCTYPE svg PUBLIC "-//W3C//DTD SVG 20010904//EN"
 "http://www.w3.org/TR/2001/REC-SVG-20010904/DTD/svg10.dtd">
<svg version="1.0" xmlns="http://www.w3.org/2000/svg"
 width="1100.000000pt" height="1100.000000pt" viewBox="0 0 1100.000000 1100.000000"
 preserveAspectRatio="xMidYMid meet">
<metadata>
Created by potrace 1.14, written by Peter Selinger 2001-2017
</metadata>
<g transform="translate(0.000000,1100.000000) scale(0.100000,-0.100000)"
fill="#000000" stroke="none">
<path d="M4874 8492 c-12 -9 -25 -27 -29 -40 -21 -69 66 -126 120 -79 30 26
39 61 23 91 -25 47 -75 60 -114 28z"/>
<path d="M5252 8487 c-56 -60 0 -155 74 -127 39 15 54 35 54 74 0 66 -83 101
-128 53z"/>
<path d="M5642 8490 c-12 -12 -22 -24 -23 -28 0 -4 -2 -17 -5 -30 -6 -32 46
-84 78 -78 41 8 55 17 67 42 17 39 13 63 -15 89 -33 30 -73 32 -102 5z"/>
<path d="M4497 8122 c-29 -12 -54 -59 -49 -92 2 -16 16 -41 30 -56 23 -22 32
-25 66 -19 48 7 61 17 74 53 27 77 -44 144 -121 114z"/>
<path d="M4879 8123 c-21 -5 -49 -55 -49 -88 0 -37 50 -85 89 -85 41 0 80 36
88 82 5 32 1 41 -25 68 -29 29 -58 35 -103 23z"/>
<path d="M5257 8119 c-11 -6 -25 -26 -33 -45 -38 -90 69 -161 144 -96 33 29
31 95 -4 127 -29 27 -75 32 -107 14z"/>
<path d="M5624 8097 c-47 -56 -15 -132 59 -144 31 -5 40 -1 67 25 38 39 40 79
4 122 -22 26 -32 30 -66 28 -30 -1 -46 -9 -64 -31z"/>
<path d="M6041 8066 c-26 -27 -27 -58 -3 -79 23 -21 65 -22 81 -3 21 25 22 62
2 80 -29 26 -57 27 -80 2z"/>
<path d="M4126 8067 c-35 -26 -18 -87 25 -87 23 0 49 26 49 50 0 21 -25 50
-44 50 -7 0 -20 -6 -30 -13z"/>
<path d="M6435 8054 c-19 -20 -16 -43 8 -58 24 -15 53 5 49 35 -4 38 -31 49
-57 23z"/>
<path d="M6064 7755 c-41 -17 -66 -49 -69 -87 -7 -81 79 -143 148 -107 99 52
73 189 -39 205 -6 1 -24 -4 -40 -11z"/>
<path d="M4469 7722 c-22 -20 -32 -38 -33 -62 -4 -53 15 -83 65 -104 32 -13
39 -13 76 4 30 13 44 27 52 52 35 105 -78 183 -160 110z"/>
<path d="M4856 7729 c-75 -59 -32 -179 65 -179 101 0 137 140 47 186 -38 20
-81 17 -112 -7z"/>
<path d="M5242 7725 c-36 -30 -47 -66 -32 -110 36 -109 195 -77 195 38 0 31
-7 45 -33 68 -42 37 -89 39 -130 4z"/>
<path d="M5622 7720 c-60 -60 -33 -151 50 -169 91 -21 155 88 95 162 -17 22
-34 30 -68 34 -41 5 -48 2 -77 -27z"/>
<path d="M6462 7715 c-17 -8 -32 -18 -33 -22 0 -4 -2 -19 -5 -32 -6 -32 31
-71 66 -71 35 0 72 39 66 71 -3 13 -5 27 -5 31 -1 4 -13 14 -29 22 -23 12 -32
12 -60 1z"/>
<path d="M4113 7711 c-13 -8 -30 -43 -28 -56 7 -46 52 -66 91 -40 28 18 33 65
9 85 -18 15 -58 21 -72 11z"/>
<path d="M6845 7695 c-14 -13 -25 -31 -25 -40 0 -23 37 -55 64 -55 51 0 70 67
29 100 -33 26 -39 25 -68 -5z"/>
<path d="M3723 7695 c-40 -28 -7 -93 41 -81 34 8 45 49 21 76 -22 24 -34 25
-62 5z"/>
<path d="M3336 7684 c-9 -8 -16 -19 -16 -24 0 -13 30 -40 44 -40 35 0 48 53
17 70 -25 13 -27 13 -45 -6z"/>
<path d="M7235 7684 c-19 -20 -16 -43 8 -58 20 -13 50 2 55 26 3 16 -23 48
-38 48 -5 0 -16 -7 -25 -16z"/>
<path d="M4478 7354 c-36 -19 -56 -59 -54 -106 6 -119 182 -140 217 -26 15 47
5 84 -33 120 -34 32 -85 37 -130 12z"/>
<path d="M4853 7348 c-72 -51 -60 -159 21 -193 78 -33 156 20 156 104 0 93
-100 143 -177 89z"/>
<path d="M5230 7341 c-23 -20 -32 -38 -36 -72 -6 -43 -4 -49 27 -82 72 -77
181 -43 194 58 14 102 -106 163 -185 96z"/>
<path d="M5620 7343 c-75 -69 -44 -179 55 -197 62 -11 124 41 127 107 4 99
-110 154 -182 90z"/>
<path d="M6030 7349 c-57 -35 -67 -110 -21 -161 25 -28 36 -33 76 -33 40 0 51
5 76 33 81 91 -27 224 -131 161z"/>
<path d="M6439 7348 c-38 -13 -64 -65 -55 -112 14 -73 113 -98 163 -40 41 48
20 138 -35 150 -15 3 -31 7 -37 8 -5 2 -22 -1 -36 -6z"/>
<path d="M6808 7319 c-26 -26 -30 -35 -25 -69 7 -51 29 -72 77 -76 71 -5 115
66 79 126 -20 32 -27 37 -73 44 -22 4 -35 -2 -58 -25z"/>
<path d="M4103 7315 c-12 -8 -24 -29 -28 -46 -14 -63 69 -105 115 -59 27 27
26 71 -3 98 -27 26 -54 28 -84 7z"/>
<path d="M3720 7290 c-25 -25 -25 -32 -2 -60 14 -18 25 -21 45 -16 35 8 46 49
22 76 -23 25 -40 25 -65 0z"/>
<path d="M3336 7284 c-19 -18 -19 -20 -6 -45 12 -21 40 -25 58 -7 18 18 14 46
-7 58 -25 13 -27 13 -45 -6z"/>
<path d="M4486 6986 c-51 -29 -76 -67 -76 -116 0 -65 44 -114 112 -123 94 -12
164 83 129 176 -21 54 -118 91 -165 63z"/>
<path d="M4875 6990 c-37 -14 -74 -64 -79 -105 -16 -129 157 -191 228 -82 50
76 0 182 -89 190 -22 3 -49 1 -60 -3z"/>
<path d="M5275 6992 c-102 -22 -129 -168 -41 -225 81 -53 182 -5 192 91 10 89
-62 153 -151 134z"/>
<path d="M5633 6980 c-91 -40 -91 -175 0 -219 95 -46 193 25 180 128 -11 83
-98 128 -180 91z"/>
<path d="M6055 6992 c-48 -10 -102 -92 -90 -135 30 -102 115 -142 192 -91 119
77 38 256 -102 226z"/>
<path d="M4082 6975 c-89 -38 -88 -173 2 -210 107 -45 204 74 140 172 -28 44
-89 60 -142 38z"/>
<path d="M6415 6963 c-79 -54 -62 -170 30 -202 129 -44 210 138 93 209 -41 25
-80 23 -123 -7z"/>
<path d="M3713 6973 c-30 -6 -71 -49 -78 -83 -16 -74 68 -147 140 -120 87 33
93 155 10 194 -18 9 -37 15 -42 15 -4 -1 -18 -4 -30 -6z"/>
<path d="M6824 6964 c-72 -35 -79 -147 -10 -183 97 -52 197 37 150 134 -26 56
-84 76 -140 49z"/>
<path d="M3305 6915 c-41 -40 -22 -96 37 -110 21 -5 33 -1 52 19 30 29 33 55
9 85 -28 34 -69 36 -98 6z"/>
<path d="M7221 6922 c-52 -42 -19 -127 46 -116 31 5 63 37 63 64 0 50 -71 84
-109 52z"/>
<path d="M2920 6910 c-26 -26 -25 -54 2 -80 40 -37 91 -14 91 41 0 55 -55 77
-93 39z"/>
<path d="M7612 6910 c-37 -35 -10 -99 41 -100 23 0 57 35 57 60 0 25 -34 60
-58 60 -10 0 -28 -9 -40 -20z"/>
<path d="M2553 6895 c-20 -22 -15 -44 11 -57 20 -8 28 -7 40 5 19 19 20 39 4
55 -16 16 -40 15 -55 -3z"/>
<path d="M8006 6894 c-20 -19 -20 -25 -2 -49 12 -17 18 -18 40 -7 28 12 34 40
14 60 -16 16 -33 15 -52 -4z"/>
<path d="M4497 6605 c-50 -17 -67 -33 -87 -80 -42 -99 43 -203 149 -184 49 9
75 29 99 74 53 104 -51 228 -161 190z"/>
<path d="M5265 6607 c-110 -35 -131 -179 -35 -247 71 -50 190 -5 208 79 22
106 -74 200 -173 168z"/>
<path d="M4855 6598 c-28 -16 -40 -30 -57 -63 -14 -27 -15 -45 -10 -107 1 -9
16 -30 33 -47 l31 -31 -106 0 c-109 0 -113 -2 -107 -42 4 -27 3 -99 -1 -103
-3 -3 -20 2 -38 12 -119 59 -254 -64 -204 -186 16 -38 68 -90 93 -93 60 -6 80
-3 114 12 42 21 38 29 39 -70 1 -59 -5 -69 -29 -48 -32 28 -90 31 -138 8 -116
-56 -91 -234 37 -255 39 -7 108 10 108 26 0 5 6 9 13 9 9 0 12 -25 11 -95 -1
-52 -4 -95 -8 -95 -3 0 -20 7 -38 16 -39 20 -109 14 -147 -13 -14 -11 -35 -38
-47 -60 l-21 -41 -13 56 c-7 31 -19 69 -26 85 -8 15 -12 27 -9 27 4 0 -3 13
-14 29 -12 16 -21 32 -21 35 0 3 -15 27 -34 53 -27 39 -32 53 -25 71 14 38 2
75 -36 110 -39 36 -81 42 -129 17 -18 -10 -33 -12 -40 -6 -6 5 -13 9 -16 9 -3
1 -18 6 -35 12 -175 67 -448 56 -593 -25 -24 -14 -51 -25 -59 -25 -7 0 -53
-39 -102 -87 -72 -73 -96 -104 -135 -183 -26 -52 -47 -97 -47 -100 1 -3 -2
-19 -5 -37 -5 -28 -8 -31 -21 -18 -54 54 -139 0 -112 -72 10 -28 61 -48 87
-34 28 15 27 16 27 -31 0 -145 46 -295 122 -398 56 -74 197 -190 233 -190 5 0
10 -4 10 -8 0 -5 -14 -9 -31 -9 -41 0 -72 -33 -71 -74 3 -99 152 -97 152 2 0
16 -9 38 -20 49 -25 25 -25 25 62 -4 40 -14 93 -27 116 -30 50 -5 51 -6 57
-34 14 -77 88 -118 157 -89 41 17 59 38 67 79 6 30 12 34 59 44 29 7 64 15 78
18 22 6 24 4 20 -19 -5 -28 11 -83 29 -101 56 -56 160 -48 197 14 36 61 27
124 -25 168 l-30 25 47 46 48 45 -32 33 -32 33 19 29 c77 110 -38 249 -156
189 -40 -21 -65 -62 -70 -118 -2 -16 -148 -74 -159 -63 -2 2 1 19 7 38 15 46
-8 106 -49 130 -88 53 -197 -27 -171 -126 5 -23 9 -42 8 -43 -1 -1 -30 9 -65
23 -35 14 -82 43 -107 67 -48 46 -103 151 -82 158 7 2 227 4 490 3 l478 -1 5
23 c3 12 4 47 2 77 l-3 55 35 -38 c54 -60 118 -75 182 -43 l36 19 5 -24 c2
-13 0 -26 -5 -29 -4 -3 -6 -10 -3 -15 4 -5 7 -29 8 -52 l2 -44 -32 18 c-47 27
-78 30 -125 13 -68 -24 -100 -69 -101 -143 0 -54 25 -96 75 -126 38 -22 109
-23 142 -2 17 11 27 13 32 6 7 -12 11 -151 4 -146 -95 58 -185 41 -234 -42
-54 -93 20 -221 129 -221 70 0 141 61 150 129 2 18 5 34 7 36 4 4 39 7 69 6
22 -1 26 -5 21 -26 -2 -14 3 -46 12 -70 14 -35 26 -48 61 -65 125 -61 245 59
184 182 -10 20 -23 39 -29 43 -5 3 -10 23 -10 44 l0 38 43 -40 c23 -21 64 -50
90 -63 36 -19 47 -29 43 -42 -28 -89 38 -182 129 -182 68 0 139 68 137 131 0
16 2 29 6 30 4 0 18 2 32 5 78 13 76 14 72 -20 -7 -67 66 -146 135 -146 70 0
135 61 138 129 2 42 -27 106 -52 115 -15 6 -12 11 17 34 52 39 115 105 146
151 24 37 29 40 43 27 31 -27 77 -44 116 -42 89 4 146 68 140 158 -5 83 -65
138 -152 138 l-38 0 3 50 c2 27 7 50 10 51 4 0 23 2 44 4 146 12 186 214 55
281 -34 18 -96 21 -125 5 -18 -9 -23 -5 -42 37 -28 59 -69 119 -115 168 -20
20 -38 49 -42 63 -16 66 -76 113 -141 111 -89 -4 -110 -3 -152 4 -161 30 -340
0 -439 -73 l-34 -24 -24 29 c-25 32 -25 33 -25 115 0 42 6 64 25 92 35 51 30
132 -11 179 -9 11 -14 42 -15 92 0 60 -4 76 -15 76 -10 0 -7 8 11 26 88 88 30
235 -94 234 -24 0 -53 -6 -64 -12z m-991 -1037 c51 -25 88 -57 122 -106 28
-41 54 -109 46 -121 -4 -6 -38 -10 -77 -10 -60 1 -70 4 -73 20 -5 26 -41 63
-74 75 -28 10 -69 7 -99 -9 -17 -10 -53 -54 -60 -75 -2 -6 -46 -10 -102 -11
-96 0 -98 0 -118 27 l-20 28 22 43 c38 76 104 131 189 159 14 5 63 7 110 6 65
-2 97 -8 134 -26z m1572 -4 c40 -10 106 -49 129 -75 l22 -26 -24 -35 c-50 -73
-15 -180 71 -216 38 -16 38 -16 32 -62 -6 -52 -4 -50 -47 -71 -45 -23 -70 -61
-76 -116 -5 -40 -10 -49 -37 -64 -17 -9 -33 -16 -36 -17 -3 0 -11 -4 -18 -8
-10 -7 -11 -2 -6 20 28 108 -26 189 -136 205 -28 4 -94 -25 -115 -50 -26 -32
-44 -81 -39 -109 3 -13 0 -23 -5 -23 -20 0 -91 95 -111 148 -23 60 -36 172
-21 172 5 0 19 20 31 45 17 36 21 56 16 95 -6 49 -5 50 41 99 68 70 133 96
230 95 43 -1 88 -4 99 -7z"/>
<path d="M5256 5482 c-132 -42 -132 -227 -1 -280 93 -37 212 51 199 148 -8 52
-14 66 -44 96 -42 43 -93 55 -154 36z"/>
<path d="M5620 6593 c-65 -46 -85 -114 -52 -179 63 -123 239 -90 257 48 6 48
-28 112 -69 132 -44 21 -105 20 -136 -1z"/>
<path d="M6045 6588 c-94 -32 -107 -167 -21 -223 32 -21 100 -22 131 -1 76 50
78 167 4 214 -26 17 -81 21 -114 10z"/>
<path d="M4078 6574 c-76 -40 -83 -154 -13 -200 94 -61 214 36 171 139 -25 61
-102 91 -158 61z"/>
<path d="M6422 6570 c-37 -23 -62 -71 -57 -112 5 -41 41 -85 78 -94 31 -8 38
-8 72 -5 18 1 75 56 76 73 0 7 2 22 4 32 7 36 -24 92 -61 109 -45 22 -72 21
-112 -3z"/>
<path d="M3713 6572 c-30 -4 -70 -47 -78 -82 -8 -38 17 -91 53 -112 51 -31
132 -3 149 50 8 25 9 34 4 72 -5 44 -71 81 -128 72z"/>
<path d="M6824 6566 c-37 -16 -65 -71 -58 -112 14 -81 124 -116 178 -57 14 15
28 39 31 54 7 29 -13 87 -36 106 -24 19 -82 24 -115 9z"/>
<path d="M7229 6563 c-25 -4 -63 -53 -64 -83 -2 -60 50 -110 108 -104 66 8
104 87 69 146 -15 26 -52 49 -75 47 -7 -1 -24 -4 -38 -6z"/>
<path d="M7613 6550 c-26 -11 -52 -57 -47 -85 8 -52 51 -88 95 -80 89 17 106
134 23 165 -30 12 -42 12 -71 0z"/>
<path d="M8003 6538 c-22 -11 -47 -61 -36 -72 4 -3 0 -6 -8 -7 -91 -4 -137
-21 -187 -68 -82 -76 -80 -203 4 -287 40 -40 91 -61 167 -66 15 -1 27 -5 27
-9 0 -10 49 -29 77 -29 27 0 73 41 73 66 0 7 0 16 0 19 0 3 11 26 24 53 48 92
45 166 -11 238 -26 35 -32 49 -23 59 14 17 6 73 -13 92 -19 19 -67 24 -94 11z"/>
<path d="M3310 6522 c-33 -29 -36 -67 -6 -96 32 -33 60 -33 91 -1 30 29 32 55
7 85 -23 28 -66 33 -92 12z"/>
<path d="M8390 6522 c-16 -13 -23 -29 -22 -50 2 -62 66 -89 108 -47 30 30 31
65 1 93 -28 27 -57 28 -87 4z"/>
<path d="M2935 6518 c-40 -23 -46 -57 -15 -88 35 -35 83 -20 95 31 5 20 1 32
-16 48 -26 24 -36 25 -64 9z"/>
<path d="M8794 6523 c-21 -15 -32 -48 -23 -70 17 -45 70 -51 100 -11 17 22 17
24 0 53 -17 30 -54 43 -77 28z"/>
<path d="M9182 6508 c-10 -13 -15 -33 -13 -56 0 -7 12 -17 26 -22 35 -13 65 6
65 42 0 40 -54 64 -78 36z"/>
<path d="M2558 6499 c-22 -12 -23 -42 -3 -59 23 -19 66 3 62 31 -2 11 -10 25
-18 30 -17 11 -20 11 -41 -2z"/>
<path d="M9571 6488 c-12 -32 21 -68 47 -52 9 6 19 21 20 34 6 41 -52 57 -67
18z"/>
<path d="M8863 6349 c-118 -33 -204 -94 -265 -189 -38 -60 -60 -137 -67 -240
l-6 -85 -97 -3 -98 -3 0 -134 c0 -74 -1 -138 -2 -142 -2 -5 43 -9 98 -11 l102
-3 0 -467 c1 -257 1 -477 1 -489 1 -21 5 -22 69 -22 158 2 162 1 174 -26 6
-14 22 -28 35 -31 26 -7 73 19 73 40 0 8 6 16 12 18 10 4 13 113 13 489 l0
484 160 5 160 5 2 49 c1 27 6 52 11 55 33 22 34 74 2 97 -10 8 -15 25 -14 48
l2 36 -168 0 -168 0 4 65 c7 128 67 182 193 173 39 -3 67 -11 80 -22 44 -40
114 8 93 65 -6 16 -1 43 20 96 15 41 28 80 28 88 0 14 -54 39 -128 57 -74 18
-247 16 -319 -3z"/>
<path d="M340 6235 c0 -8 4 -24 10 -37 8 -20 218 -658 224 -683 2 -5 6 -17 9
-25 3 -8 60 -181 126 -385 149 -456 140 -429 163 -492 19 -53 19 -53 63 -53
31 0 43 -4 40 -12 -3 -7 0 -20 5 -28 12 -19 46 -1 44 24 -2 17 -11 16 181 19
l100 2 22 65 c12 36 23 66 24 68 1 1 2 5 3 10 4 16 49 149 61 177 9 22 141
420 150 455 1 3 4 12 7 20 4 8 30 86 59 173 28 87 55 154 59 150 4 -4 30 -80
58 -167 45 -137 50 -161 37 -170 -25 -18 -27 -54 -4 -67 11 -6 26 -8 33 -6 10
4 74 -178 138 -387 45 -150 108 -321 119 -322 8 -1 28 -2 46 -3 23 -1 31 -5
27 -14 -3 -8 4 -24 14 -37 26 -33 70 -21 79 20 6 33 -2 32 155 32 l87 0 41
132 c50 159 56 173 86 180 31 8 42 50 22 83 -13 22 -11 35 33 166 119 358 289
885 289 895 0 7 3 12 8 13 83 8 114 70 62 123 -16 17 -17 22 -4 58 l13 38
-187 -2 -186 -3 -17 -45 c-16 -41 -20 -45 -47 -42 -60 6 -84 -86 -28 -108 l23
-8 -84 -259 c-46 -142 -87 -265 -90 -273 -3 -8 -7 -19 -9 -25 -1 -5 -33 -104
-71 -219 l-69 -210 -33 98 -33 97 21 23 c35 37 22 79 -25 81 -27 2 -30 8 -70
131 -35 105 -163 503 -231 717 l-15 47 -182 -2 -181 -3 -158 -470 c-87 -258
-160 -477 -162 -485 -2 -8 -12 -37 -23 -65 -11 -27 -20 -52 -19 -55 0 -7 -24
-83 -31 -94 -4 -8 -21 35 -37 94 -2 8 -35 112 -73 230 -39 118 -105 323 -147
455 -42 132 -88 275 -102 318 l-26 77 -198 0 c-167 0 -199 -2 -199 -15z"/>
<path d="M6020 6227 c-136 -72 -84 -277 71 -277 80 0 143 63 145 145 1 68 -15
97 -77 134 -44 27 -86 26 -139 -2z"/>
<path d="M6330 5410 c0 -706 2 -840 14 -847 8 -4 21 -25 29 -45 28 -66 106
-94 164 -59 34 21 68 75 58 91 -7 11 4 12 100 12 40 0 62 -4 66 -14 4 -7 13
-26 20 -42 8 -17 29 -35 48 -43 62 -26 121 1 142 64 6 18 14 33 17 34 43 4
162 0 171 -5 6 -4 11 -15 11 -25 0 -24 39 -58 77 -66 56 -11 100 26 112 93 0
4 29 6 64 5 34 0 79 -2 100 -2 33 -1 39 -5 48 -30 6 -16 22 -37 35 -46 53 -34
134 11 134 75 0 16 -10 41 -22 55 -39 44 -98 41 -138 -7 -14 -18 -16 -8 -15
126 l0 146 -50 1 c-27 0 -76 0 -108 -1 l-58 -1 6 33 c6 39 -9 73 -46 100 -23
17 -31 18 -68 8 -52 -14 -81 -56 -75 -106 l4 -34 -97 0 -98 0 -1 50 c0 39 -5
54 -25 71 -47 42 -98 46 -143 12 -31 -23 -43 -54 -40 -97 2 -32 -1 -36 -21
-36 -19 0 -23 6 -27 39 -2 21 -1 49 3 62 3 13 2 34 -2 46 -5 13 -4 25 2 28 5
4 7 10 4 15 -3 5 -5 42 -5 82 0 40 0 102 0 138 -1 110 1 163 6 171 2 4 1 10
-4 13 -4 3 -5 30 -2 60 3 31 4 56 1 56 -7 0 -4 351 2 388 2 12 1 22 -2 22 -3
0 -5 56 -4 125 l1 125 -194 0 -194 0 0 -840z"/>
<path d="M5275 6230 c-98 -21 -147 -123 -102 -212 52 -103 190 -113 253 -18
37 55 37 116 0 169 -15 21 -35 41 -44 44 -9 3 -30 9 -47 14 -16 5 -43 7 -60 3z"/>
<path d="M5670 6232 c-19 -2 -50 -15 -68 -28 -90 -69 -81 -199 17 -251 96 -51
207 10 216 118 8 96 -69 171 -165 161z"/>
<path d="M6832 6197 c-42 -13 -85 -68 -84 -107 3 -107 124 -157 199 -82 27 27
33 40 33 77 0 79 -73 134 -148 112z"/>
<path d="M4097 6182 c-57 -35 -58 -121 -2 -158 62 -41 139 -6 151 68 11 75
-82 131 -149 90z"/>
<path d="M7227 6185 c-50 -17 -69 -40 -74 -89 -13 -115 149 -160 197 -54 21
48 16 81 -21 117 -35 36 -57 41 -102 26z"/>
<path d="M3701 6161 c-35 -32 -37 -47 -17 -95 19 -46 65 -62 113 -39 36 17 40
22 47 63 4 30 -9 59 -38 82 -32 26 -70 22 -105 -11z"/>
<path d="M7623 6178 c-72 -19 -95 -102 -44 -157 39 -41 88 -43 132 -3 74 66 9
186 -88 160z"/>
<path d="M3338 6173 c-49 -13 -61 -104 -17 -131 63 -40 111 -16 124 60 8 49
-49 87 -107 71z"/>
<path d="M8404 6159 c-27 -10 -54 -47 -54 -75 0 -12 9 -33 21 -48 46 -59 145
-12 133 63 -3 14 -9 30 -15 37 -16 20 -62 32 -85 23z"/>
<path d="M2166 6134 c-32 -32 -13 -78 32 -77 27 1 32 4 42 24 9 16 8 26 -5 45
-18 28 -46 31 -69 8z"/>
<path d="M9571 6123 c-26 -18 -27 -59 -2 -73 33 -17 57 -12 69 16 22 48 -24
87 -67 57z"/>
<path d="M9966 6117 c-36 -26 4 -84 42 -61 23 15 22 44 -4 60 -17 12 -23 12
-38 1z"/>
<path d="M9870 5868 c-198 -29 -379 -148 -475 -313 -46 -80 -60 -115 -79 -205
-17 -75 -15 -243 3 -310 72 -264 290 -448 576 -487 113 -15 333 -5 375 17 11
6 20 9 20 6 0 -3 28 7 63 21 63 25 166 93 201 132 22 24 25 19 -66 116 -25 27
-62 67 -81 88 -23 26 -37 35 -42 27 -14 -23 -113 -79 -169 -95 -54 -16 -220
-27 -232 -16 -2 3 -17 7 -32 9 -44 5 -129 52 -168 91 -36 36 -89 134 -81 148
3 5 224 8 491 8 l486 -1 1 26 c12 220 -27 366 -132 501 -71 90 -145 146 -255
192 -112 47 -270 65 -404 45z m272 -309 c83 -42 148 -125 162 -205 l6 -30
-313 1 c-171 1 -315 3 -319 3 -12 3 28 100 58 143 78 114 273 156 406 88z"/>
<path d="M6061 5859 c-101 -22 -150 -130 -99 -220 53 -96 182 -100 250 -8 43
57 30 151 -26 195 -19 15 -37 27 -42 27 -5 0 -18 3 -29 7 -11 3 -35 3 -54 -1z"/>
<path d="M7757 5216 c1 -353 2 -644 2 -648 1 -3 25 -6 54 -6 152 0 147 0 158
-31 11 -31 51 -53 84 -47 11 3 23 5 27 5 4 1 17 20 29 44 22 42 22 45 23 667
1 344 0 632 -2 641 -3 15 -25 17 -190 16 l-187 0 2 -641z"/>
<path d="M6825 5810 c-62 -23 -92 -95 -67 -156 23 -56 101 -84 156 -57 79 37
89 145 20 197 -28 20 -78 28 -109 16z"/>
<path d="M7198 5786 c-86 -57 -40 -198 63 -192 61 4 115 72 99 126 -11 40 -32
68 -55 75 -46 15 -76 13 -107 -9z"/>
<path d="M7604 5789 c-27 -14 -54 -60 -54 -93 0 -35 48 -86 85 -90 36 -4 80
17 95 43 13 26 13 77 -1 103 -10 19 -66 49 -91 47 -7 0 -22 -5 -34 -10z"/>
<path d="M2916 5748 c-9 -12 -16 -28 -16 -34 0 -22 39 -61 59 -59 26 2 61 33
61 54 0 31 -30 61 -60 61 -18 0 -34 -8 -44 -22z"/>
<path d="M6815 5433 c-91 -49 -85 -178 10 -210 102 -35 188 64 143 162 -23 50
-103 75 -153 48z"/>
<path d="M7198 5416 c-88 -59 -45 -189 62 -189 48 0 86 30 99 77 24 93 -81
166 -161 112z"/>
<path d="M7620 5422 c-59 -26 -83 -77 -61 -131 38 -89 169 -68 185 31 10 62
-68 125 -124 100z"/>
<path d="M8393 5396 c-59 -26 -54 -111 8 -137 80 -33 140 72 74 129 -30 25
-38 26 -82 8z"/>
<path d="M9170 5370 c-35 -35 -17 -91 31 -97 54 -6 86 61 46 97 -27 25 -52 25
-77 0z"/>
<path d="M7608 5002 c-76 -46 -46 -153 42 -156 54 -1 85 30 85 84 0 69 -69
108 -127 72z"/>
<path d="M8384 4973 c-37 -40 -7 -113 46 -113 28 0 70 39 70 65 0 62 -75 93
-116 48z"/>
<path d="M2922 4965 c-35 -44 -3 -107 55 -107 31 0 63 33 63 66 0 63 -79 91
-118 41z"/>
<path d="M9180 4960 c-37 -37 6 -94 54 -72 30 13 35 51 10 76 -21 21 -40 20
-64 -4z"/>
<path d="M1782 4955 c-30 -22 -18 -65 19 -65 33 0 43 13 35 44 -7 30 -28 38
-54 21z"/>
<path d="M6041 4646 c-74 -26 -109 -113 -74 -183 63 -129 243 -98 257 45 10
97 -89 172 -183 138z"/>
<path d="M8386 4603 c-18 -17 -23 -32 -20 -51 14 -84 133 -75 134 10 0 24 -20
56 -38 59 -37 7 -55 3 -76 -18z"/>
<path d="M2943 4600 c-19 -8 -33 -31 -39 -69 -3 -16 43 -61 62 -61 25 0 64 23
70 42 10 32 -6 75 -32 87 -29 13 -31 13 -61 1z"/>
<path d="M9174 4584 c-15 -22 -15 -26 0 -49 25 -39 86 -26 86 18 -1 53 -58 74
-86 31z"/>
<path d="M2545 4576 c-21 -21 -23 -28 -14 -55 15 -41 65 -53 91 -21 21 27 23
50 4 75 -20 28 -54 28 -81 1z"/>
<path d="M9583 4592 c-11 -7 -16 -26 -14 -49 2 -18 40 -26 56 -13 16 14 21 60
6 60 -5 0 -15 2 -23 5 -7 3 -18 1 -25 -3z"/>
<path d="M1776 4564 c-20 -19 -20 -25 -2 -49 12 -17 18 -18 40 -7 31 14 34 47
7 62 -25 13 -27 13 -45 -6z"/>
<path d="M1374 4556 c-10 -26 4 -48 28 -44 17 2 23 10 23 28 0 18 -6 26 -23
28 -13 2 -25 -3 -28 -12z"/>
<path d="M4479 4247 c-22 -11 -44 -32 -53 -52 -18 -37 -21 -91 -6 -100 6 -4 8
-10 5 -15 -8 -14 53 -59 90 -66 103 -19 182 99 126 189 -36 59 -98 76 -162 44z"/>
<path d="M4101 4238 c-84 -41 -81 -168 4 -204 44 -18 59 -18 101 2 97 46 77
190 -29 214 -28 6 -45 3 -76 -12z"/>
<path d="M5254 4242 c-83 -43 -100 -145 -34 -204 40 -37 75 -44 124 -27 70 24
101 93 75 167 -20 58 -110 93 -165 64z"/>
<path d="M5654 4247 c-53 -17 -93 -71 -89 -117 1 -8 3 -24 3 -36 3 -29 52 -80
85 -88 81 -19 163 41 160 117 0 9 -1 27 -2 38 -1 29 -63 86 -99 91 -16 2 -42
0 -58 -5z"/>
<path d="M4861 4237 c-57 -29 -81 -101 -55 -162 17 -42 46 -62 102 -71 123
-19 187 151 84 225 -34 24 -94 28 -131 8z"/>
<path d="M6013 4224 c-71 -55 -59 -170 21 -208 85 -40 172 11 180 105 9 105
-117 170 -201 103z"/>
<path d="M3725 4210 c-49 -19 -67 -80 -36 -120 25 -31 88 -34 116 -6 54 53
-11 154 -80 126z"/>
<path d="M3333 4200 c-64 -26 -46 -129 23 -130 62 -1 92 84 43 121 -27 21 -34
22 -66 9z"/>
<path d="M2942 4189 c-23 -9 -38 -49 -28 -74 10 -27 53 -40 80 -25 67 35 19
125 -52 99z"/>
<path d="M6470 4190 c-48 -12 -62 -86 -22 -117 58 -44 132 20 98 85 -17 32
-38 42 -76 32z"/>
<path d="M2544 4169 c-25 -28 -9 -73 28 -77 36 -4 65 36 48 67 -6 12 -14 21
-18 22 -4 0 -15 2 -24 4 -9 2 -25 -6 -34 -16z"/>
<path d="M6845 4165 c-29 -28 -31 -42 -9 -73 10 -14 25 -22 44 -22 60 0 78 84
24 109 -33 14 -31 15 -59 -14z"/>
<path d="M2162 4168 c-25 -25 -7 -68 30 -68 9 0 22 9 28 19 10 20 4 51 -10 51
-5 0 -14 2 -22 5 -7 3 -19 0 -26 -7z"/>
<path d="M7260 4172 c-19 -5 -40 -32 -40 -48 0 -41 71 -59 90 -24 20 38 -12
85 -50 72z"/>
<path d="M1377 4162 c-23 -5 -19 -45 5 -50 22 -4 42 32 25 45 -6 5 -20 8 -30
5z"/>
<path d="M1762 4153 c-13 -26 -4 -43 24 -43 29 0 41 24 24 45 -17 20 -37 19
-48 -2z"/>
<path d="M7635 4154 c-19 -20 -16 -43 8 -58 20 -13 50 2 55 26 3 16 -23 48
-38 48 -5 0 -16 -7 -25 -16z"/>
<path d="M8026 4133 c-10 -26 23 -48 42 -29 8 8 12 22 9 30 -8 21 -43 20 -51
-1z"/>
<path d="M2370 3681 l0 -261 24 0 c13 0 26 6 28 13 2 6 4 122 3 257 l0 245
-27 3 -28 3 0 -260z"/>
<path d="M582 3891 c3 -31 7 -36 28 -36 21 0 25 5 28 36 3 34 1 35 -28 35 -29
0 -31 -1 -28 -35z"/>
<path d="M1322 3892 c3 -32 6 -37 28 -37 21 0 25 5 28 36 3 34 1 36 -28 37
-30 1 -31 -1 -28 -36z"/>
<path d="M1589 3902 c0 -15 0 -47 1 -70 l2 -44 -38 4 c-36 3 -39 1 -41 -24 -1
-20 3 -27 15 -26 62 5 61 5 61 -94 -1 -230 -2 -228 25 -228 31 0 32 7 31 178
-1 146 0 150 39 143 4 -1 17 1 27 4 21 7 26 44 7 46 -7 0 -26 2 -43 2 -29 2
-30 3 -31 59 0 62 -4 70 -34 75 -16 2 -20 -3 -21 -25z"/>
<path d="M10858 3861 c-2 -50 -7 -66 -18 -67 -8 -1 -25 -2 -37 -3 -18 -1 -22
-6 -19 -23 2 -19 10 -23 37 -23 l34 0 2 -105 c1 -58 2 -131 3 -162 0 -55 1
-58 25 -58 29 0 27 -13 29 175 l1 149 43 -1 c38 -1 42 1 42 23 0 16 -6 24 -17
25 -73 4 -68 -2 -68 68 0 63 -1 65 -27 66 -27 2 -27 1 -30 -64z"/>
<path d="M17 3912 c-15 -3 -17 -28 -17 -247 l0 -243 123 0 c131 0 185 14 235
61 63 58 89 182 58 274 -25 76 -95 138 -169 150 -36 6 -207 9 -230 5z m259
-72 c132 -57 128 -297 -6 -352 -35 -15 -199 -17 -208 -4 -4 6 -7 93 -7 194 l0
183 90 -2 c62 -1 103 -7 131 -19z"/>
<path d="M2839 3903 c-1 -11 -1 -423 0 -456 1 -21 6 -28 19 -26 40 4 54 -1 48
-17 -10 -25 4 -61 27 -71 43 -20 96 24 82 67 -7 22 3 24 91 20 45 -1 69 16 54
40 -7 12 -36 15 -137 15 l-128 0 -1 205 c-1 113 -2 211 -3 218 -1 13 -50 17
-52 5z"/>
<path d="M5964 3668 l1 -241 27 -4 27 -3 -1 107 c-1 119 -7 110 62 98 14 -3
37 0 53 7 24 9 30 8 48 -13 l21 -24 19 25 c10 14 25 32 32 40 7 8 35 45 62 82
28 37 55 67 60 68 6 0 10 -70 10 -192 l0 -191 27 -4 27 -4 -1 103 c0 155 -1
151 20 143 29 -13 53 -7 79 17 19 18 22 28 17 52 -11 51 -50 71 -96 51 -19 -8
-23 10 -19 88 3 36 2 37 -32 37 -26 0 -41 -7 -54 -24 -10 -14 -46 -63 -81
-110 -35 -47 -67 -86 -73 -86 -6 0 -6 7 -1 18 21 39 -15 115 -61 132 -17 5
-38 10 -48 10 -10 0 -27 14 -39 30 -16 23 -29 30 -55 30 l-33 0 2 -242z"/>
<path d="M4484 3866 c-17 -8 -41 -27 -52 -44 -12 -16 -34 -32 -49 -36 -33 -7
-60 -29 -92 -74 -19 -28 -24 -46 -24 -104 0 -61 4 -75 29 -111 17 -25 46 -50
70 -61 38 -18 42 -23 47 -65 13 -116 159 -153 225 -57 26 37 28 88 7 130 -20
38 -20 211 0 246 58 102 -53 224 -161 176z m-62 -164 c21 -44 63 -72 115 -75
33 -2 38 -5 38 -27 -1 -48 -22 -90 -47 -90 -13 0 -38 -9 -56 -20 -18 -11 -39
-20 -46 -20 -21 0 -72 31 -85 52 -17 27 -24 110 -12 141 10 26 57 77 70 77 3
0 14 -17 23 -38z"/>
<path d="M4102 3855 c-22 -10 -39 -27 -51 -54 -16 -36 -19 -39 -33 -25 -20 20
-114 26 -153 9 -30 -12 -34 -11 -60 17 -24 26 -34 29 -64 24 -44 -7 -62 -25
-68 -68 -4 -30 0 -39 27 -61 17 -14 36 -24 43 -21 9 3 12 -12 10 -58 -1 -44 4
-72 18 -99 l19 -38 -33 5 c-84 14 -151 -71 -113 -144 30 -58 86 -80 138 -54
31 16 35 16 68 0 39 -19 173 -19 192 0 8 8 17 7 32 -3 89 -57 204 40 164 140
-14 36 -39 56 -87 71 l-35 11 -1 66 c0 66 0 67 25 64 119 -17 178 150 75 213
-38 23 -67 25 -113 5z m-93 -132 c36 -27 54 -68 53 -121 -4 -176 -252 -168
-255 8 -1 110 116 176 202 113z m20 -290 c-12 -24 -17 -48 -14 -65 5 -19 1
-29 -12 -36 -31 -17 -151 -4 -154 17 0 3 -2 20 -3 36 -1 17 -8 40 -15 53 l-12
23 27 -17 c41 -27 134 -25 171 3 15 12 29 22 29 22 1 1 -7 -16 -17 -36z"/>
<path d="M4875 3840 c-36 -14 -66 -56 -67 -91 0 -19 -7 -46 -15 -61 -33 -66
-12 -170 45 -225 l30 -29 -23 -22 c-60 -58 -17 -162 69 -167 80 -5 136 88 91
152 -14 20 -13 22 16 28 34 8 109 76 109 100 0 26 -55 19 -69 -9 -32 -59 -138
-63 -192 -7 -19 20 -36 69 -33 99 3 45 3 45 19 32 24 -20 97 -18 129 4 16 10
33 31 39 47 13 34 21 36 40 9 18 -26 67 -37 67 -15 0 19 -68 95 -85 95 -6 0
-20 9 -31 21 -39 43 -93 58 -139 39z"/>
<path d="M5243 3829 c-37 -23 -58 -76 -49 -121 7 -34 36 -63 82 -83 25 -10 36
-27 67 -102 20 -49 37 -92 37 -96 0 -4 -13 -1 -30 8 -99 51 -195 -82 -117
-162 60 -61 157 -26 173 63 5 29 11 44 58 147 14 32 26 59 26 61 0 3 10 26 22
53 11 26 22 53 24 58 4 16 34 85 37 85 2 0 3 -9 4 -21 5 -56 72 -105 129 -94
101 19 130 139 49 201 -29 22 -42 26 -76 21 -23 -3 -52 -16 -65 -28 -14 -13
-37 -24 -52 -25 -25 -1 -31 -11 -87 -147 -32 -81 -62 -147 -65 -147 -3 0 -15
30 -28 66 l-23 66 25 25 c35 34 42 82 21 127 -30 63 -103 82 -162 45z"/>
<path d="M3316 3805 c-12 -9 -20 -29 -22 -54 -1 -22 -7 -48 -12 -58 -30 -56
-19 -153 23 -209 l24 -31 -23 -22 c-13 -12 -22 -31 -21 -44 1 -12 3 -28 4 -34
0 -7 13 -19 29 -27 40 -20 87 1 97 43 3 17 4 35 1 40 -3 5 16 9 44 9 68 1 105
23 145 85 l17 27 -27 0 c-16 0 -41 -12 -62 -30 -62 -55 -149 -40 -193 32 -10
17 -16 36 -14 42 3 8 48 11 147 11 78 -1 147 3 153 7 13 9 3 72 -17 112 -16
31 -81 86 -104 87 -11 1 -37 3 -58 4 -21 1 -43 7 -50 14 -15 15 -58 13 -81 -4z
m195 -74 c26 -13 67 -76 56 -88 -5 -5 -204 -8 -239 -4 -16 2 11 46 28 47 32 1
55 16 64 39 10 25 47 28 91 6z"/>
<path d="M2932 3794 c-41 -29 -16 -97 38 -100 46 -3 72 68 37 99 -25 21 -46
22 -75 1z"/>
<path d="M604 3792 c-21 -3 -22 -6 -20 -185 1 -166 3 -182 19 -185 22 -4 49
16 40 31 -3 6 -6 84 -6 174 1 89 -2 164 -5 166 -4 2 -17 1 -28 -1z"/>
<path d="M886 3779 c-88 -43 -128 -168 -82 -257 19 -36 81 -92 104 -93 9 0 28
-2 41 -5 33 -6 98 13 121 36 24 24 29 17 24 -39 -5 -62 -37 -94 -100 -97 -53
-3 -91 9 -117 37 -20 21 -67 26 -67 7 0 -24 60 -77 98 -87 71 -20 154 -9 196
28 42 37 46 63 49 276 l2 205 -32 0 c-29 0 -31 -2 -27 -27 5 -25 4 -26 -13
-11 -54 47 -133 58 -197 27z m158 -52 c53 -35 70 -141 32 -199 -44 -68 -148
-72 -203 -9 -56 64 -35 178 39 214 36 18 100 15 132 -6z"/>
<path d="M1944 3785 c-91 -41 -133 -147 -99 -254 18 -57 105 -121 157 -115 13
1 32 3 44 3 12 1 38 12 58 26 45 30 44 30 42 3 -1 -16 6 -22 27 -25 l27 -4 0
143 c0 113 3 148 15 166 12 16 13 27 6 41 -22 39 -93 26 -77 -14 6 -17 -1 -15
-45 17 -32 24 -115 30 -155 13z m149 -61 c37 -28 56 -73 51 -128 -5 -71 -46
-121 -104 -126 -55 -5 -74 2 -109 38 -31 31 -38 45 -40 85 -2 58 22 113 62
137 37 23 106 19 140 -6z"/>
<path d="M2538 3774 c-14 -30 -3 -53 29 -65 42 -16 76 39 45 74 -23 26 -60 22
-74 -9z"/>
<path d="M6693 3780 c-129 -58 -136 -270 -10 -340 59 -34 127 -31 181 7 l42
29 -1 -25 c0 -20 5 -27 26 -29 l25 -3 1 186 1 185 -62 -1 c-33 -1 -84 1 -111
4 -37 4 -61 1 -92 -13z m134 -67 c11 -23 27 -40 42 -43 63 -14 41 -149 -30
-186 -91 -46 -191 15 -191 118 0 72 26 114 82 137 52 20 77 14 97 -26z"/>
<path d="M7244 3785 c-18 -7 -35 -18 -38 -24 -12 -19 -29 -12 -23 9 4 17 0 20
-26 20 l-32 0 2 -152 c1 -84 2 -168 2 -185 1 -28 5 -33 26 -33 14 0 25 3 26 8
0 4 1 61 2 127 2 92 6 126 19 144 13 18 18 20 25 8 4 -8 17 -19 29 -25 17 -9
25 -7 43 9 11 11 21 26 21 34 0 23 24 18 51 -11 22 -23 24 -34 26 -137 1 -62
2 -122 2 -135 1 -18 6 -23 24 -20 12 2 24 6 27 10 3 4 5 63 4 131 -2 138 -12
170 -65 207 -36 27 -102 33 -145 15z"/>
<path d="M7738 3795 c-3 -3 -15 -8 -28 -10 -12 -2 -28 -9 -36 -16 -8 -6 -14
-8 -14 -4 0 5 -8 1 -18 -9 -21 -18 -46 -112 -45 -164 2 -45 39 -118 72 -142
61 -43 163 -43 210 1 26 25 31 24 31 -6 0 -20 5 -25 25 -25 14 0 26 6 26 13 6
58 2 353 -4 358 -19 13 -47 -3 -47 -28 l0 -24 -34 26 c-32 24 -123 44 -138 30z
m111 -66 c81 -49 81 -195 0 -243 -42 -25 -102 -23 -140 5 -34 24 -51 58 -54
109 -7 109 104 184 194 129z"/>
<path d="M8224 3784 c-131 -44 -152 -252 -33 -331 56 -37 142 -39 188 -5 17
12 34 22 39 22 9 0 -2 -92 -13 -110 -32 -52 -173 -47 -208 8 -4 6 -22 12 -38
12 l-31 0 19 -32 c43 -73 172 -102 253 -57 69 39 77 67 77 298 1 217 4 202
-44 201 -5 0 -7 -9 -7 -20 2 -26 -10 -25 -46 1 -35 26 -101 32 -156 13z m146
-56 c51 -32 70 -136 35 -195 -48 -82 -176 -77 -221 9 -36 70 -8 164 59 193 34
15 97 11 127 -7z"/>
<path d="M8738 3786 c-45 -19 -95 -75 -104 -115 -19 -91 7 -179 65 -220 85
-61 223 -35 266 50 15 29 15 29 -11 29 -15 0 -41 -13 -61 -30 -45 -40 -110
-42 -158 -5 -31 23 -62 81 -47 88 4 2 74 3 155 3 l148 -1 -2 40 c-5 71 -36
122 -94 152 -37 20 -121 24 -157 9z m146 -63 c31 -22 54 -72 39 -81 -6 -4 -62
-7 -125 -6 -124 1 -128 4 -91 61 34 52 124 65 177 26z"/>
<path d="M9147 3787 c-12 -10 -14 -43 -13 -187 l1 -175 28 -2 27 -2 0 126 c0
101 3 131 17 154 23 39 79 57 119 38 46 -22 54 -51 54 -192 l0 -128 28 4 27 4
1 109 c2 151 1 146 27 175 29 35 60 43 103 29 50 -17 64 -55 63 -172 -1 -157
-3 -150 29 -146 l27 3 -1 130 c-1 157 -13 193 -77 224 -23 11 -55 19 -72 17
-16 -2 -35 -4 -40 -5 -6 0 -26 -15 -44 -32 -33 -30 -34 -30 -48 -10 -41 59
-159 63 -198 8 -15 -21 -15 -21 -15 5 0 30 -21 42 -43 25z"/>
<path d="M9932 3780 c-138 -64 -140 -273 -3 -344 42 -22 116 -24 162 -4 32 14
89 73 89 91 0 15 -61 6 -67 -8 -8 -22 -60 -47 -98 -47 -61 0 -125 50 -125 97
0 20 5 21 143 20 78 -1 147 0 153 2 6 2 10 18 8 36 -16 138 -140 212 -262 157z
m147 -49 c25 -14 53 -58 49 -79 -3 -14 -20 -16 -121 -17 -111 0 -117 1 -117
20 1 27 28 60 65 80 31 16 89 14 124 -4z"/>
<path d="M10339 3790 c-1 -3 -2 -87 -3 -187 l-1 -182 27 1 28 1 2 116 c1 137
1 130 16 158 36 65 148 65 184 0 8 -13 13 -67 14 -137 1 -63 3 -121 3 -127 1
-7 12 -13 26 -13 28 0 27 -8 27 152 -1 80 -5 116 -18 143 -41 87 -160 109
-231 43 l-23 -21 0 29 c0 24 -4 29 -25 29 -14 0 -26 -2 -26 -5z"/>
<path d="M1323 3605 l1 -186 26 3 25 3 2 183 1 182 -28 0 -28 0 1 -185z"/>
<path d="M1774 3782 c-25 -16 -24 -43 2 -54 26 -12 43 -1 44 29 0 16 -33 34
-46 25z"/>
<path d="M8037 3757 c-22 -16 -13 -47 14 -47 25 0 36 28 17 46 -11 12 -17 12
-31 1z"/>
<path d="M5654 3440 c-31 -12 -64 -59 -64 -91 0 -81 72 -128 144 -94 111 53
35 228 -80 185z"/>
<path d="M6043 3430 c-62 -37 -73 -108 -24 -154 55 -53 132 -39 162 28 16 36
16 44 3 74 -14 34 -39 60 -59 62 -5 1 -19 3 -30 5 -12 3 -35 -4 -52 -15z"/>
<path d="M2556 3411 c-20 -22 -20 -35 -1 -54 18 -19 52 -11 60 14 12 38 -33
69 -59 40z"/>
<path d="M6452 3393 c-34 -29 -37 -66 -8 -98 21 -22 30 -26 56 -20 37 8 61 42
55 75 -5 29 -39 60 -65 60 -10 0 -27 -8 -38 -17z"/>
<path d="M6845 3386 c-19 -14 -26 -70 -9 -86 5 -5 20 -11 34 -15 52 -13 89 56
51 94 -24 24 -49 27 -76 7z"/>
<path d="M7244 3382 c-24 -15 -26 -50 -5 -71 26 -26 43 -26 63 -3 38 43 -11
105 -58 74z"/>
<path d="M7636 3365 c-19 -19 -19 -21 -6 -44 12 -23 49 -22 64 2 23 36 -27 73
-58 42z"/>
<path d="M4485 3048 c-110 -63 -24 -233 91 -180 56 26 75 90 43 148 -21 40
-91 57 -134 32z"/>
<path d="M4878 3032 c-49 -30 -62 -91 -28 -135 41 -52 118 -43 147 18 20 42
11 78 -27 107 -35 26 -62 29 -92 10z"/>
<path d="M5262 3030 c-38 -23 -44 -33 -45 -76 -1 -43 42 -91 81 -92 35 0 80
27 89 53 28 84 -53 159 -125 115z"/>
<path d="M5659 3037 c-37 -14 -62 -60 -55 -101 8 -44 42 -70 90 -70 31 -1 43
5 62 29 28 35 31 81 6 111 -23 29 -70 43 -103 31z"/>
<path d="M6058 3033 c-67 -27 -75 -117 -14 -154 77 -47 167 35 124 114 -25 47
-60 60 -110 40z"/>
<path d="M4119 3023 c-21 -5 -39 -45 -32 -71 2 -11 16 -26 30 -33 56 -30 109
45 64 90 -21 21 -30 23 -62 14z"/>
<path d="M3722 3003 c-28 -24 -20 -69 14 -77 51 -13 85 42 48 78 -20 21 -37
20 -62 -1z"/>
<path d="M6441 2996 c-16 -17 -20 -31 -17 -52 16 -85 141 -66 130 19 -7 58
-72 77 -113 33z"/>
<path d="M3336 2994 c-9 -8 -16 -19 -16 -24 0 -13 30 -40 44 -40 26 0 40 28
28 55 -13 29 -34 32 -56 9z"/>
<path d="M6837 2992 c-21 -23 -21 -41 -1 -70 28 -40 104 -21 104 26 0 53 -69
82 -103 44z"/>
<path d="M7240 2990 c-34 -34 -17 -80 29 -80 33 0 51 18 46 45 -2 11 -4 23 -4
26 -1 3 -12 11 -26 17 -21 10 -28 9 -45 -8z"/>
<path d="M4503 2635 c-33 -14 -43 -32 -43 -75 0 -33 40 -70 75 -70 12 0 34 9
49 21 37 29 37 91 -1 116 -34 22 -43 23 -80 8z"/>
<path d="M4882 2633 c-35 -17 -48 -55 -33 -96 19 -50 84 -63 121 -24 31 32 34
72 7 102 -28 32 -55 37 -95 18z"/>
<path d="M5282 2642 c-29 -9 -61 -58 -54 -85 8 -35 43 -67 72 -67 73 0 107 86
54 135 -28 26 -34 27 -72 17z"/>
<path d="M5665 2640 c-47 -19 -62 -63 -38 -112 27 -55 124 -42 139 18 9 37
-14 81 -48 93 -17 6 -31 11 -32 10 -1 0 -10 -4 -21 -9z"/>
<path d="M4102 2615 c-30 -22 -33 -52 -8 -82 18 -21 27 -24 53 -19 42 9 60 55
35 86 -22 26 -54 32 -80 15z"/>
<path d="M3711 2599 c-24 -25 -16 -57 16 -72 28 -13 52 -2 63 29 17 45 -46 79
-79 43z"/>
<path d="M3339 2603 c-23 -6 -30 -40 -12 -58 18 -18 33 -19 55 -2 14 11 15 17
5 37 -13 25 -23 30 -48 23z"/>
</g>
</svg>
